<svg width="16" height="16" viewBox="0 0 16 16" fill="none" xmlns="http://www.w3.org/2000/svg">
<path d="M7.9974 7.99996C7.26406 7.99996 6.63628 7.73885 6.11406 7.21663C5.59184 6.6944 5.33073 6.06663 5.33073 5.33329C5.33073 4.59996 5.59184 3.97218 6.11406 3.44996C6.63628 2.92774 7.26406 2.66663 7.9974 2.66663C8.73073 2.66663 9.35851 2.92774 9.88073 3.44996C10.403 3.97218 10.6641 4.59996 10.6641 5.33329C10.6641 6.06663 10.403 6.6944 9.88073 7.21663C9.35851 7.73885 8.73073 7.99996 7.9974 7.99996ZM2.66406 13.3333V11.4666C2.66406 11.0888 2.7614 10.7415 2.95606 10.4246C3.15073 10.1077 3.40895 9.86618 3.73073 9.69996C4.41962 9.35552 5.11962 9.09707 5.83073 8.92463C6.54184 8.75218 7.26406 8.66618 7.9974 8.66663C8.73073 8.66663 9.45295 8.75285 10.1641 8.92529C10.8752 9.09774 11.5752 9.35596 12.2641 9.69996C12.5863 9.86663 12.8447 10.1084 13.0394 10.4253C13.2341 10.7422 13.3312 11.0893 13.3307 11.4666V13.3333H2.66406ZM3.9974 12H11.9974V11.4666C11.9974 11.3444 11.9667 11.2333 11.9054 11.1333C11.8441 11.0333 11.7636 10.9555 11.6641 10.9C11.0641 10.6 10.4585 10.3751 9.8474 10.2253C9.23628 10.0755 8.61962 10.0004 7.9974 9.99996C7.37517 9.99996 6.75851 10.0751 6.1474 10.2253C5.53629 10.3755 4.93073 10.6004 4.33073 10.9C4.23073 10.9555 4.15006 11.0333 4.08873 11.1333C4.0274 11.2333 3.99695 11.3444 3.9974 11.4666V12ZM7.9974 6.66663C8.36406 6.66663 8.67806 6.53596 8.9394 6.27463C9.20073 6.01329 9.33117 5.69951 9.33073 5.33329C9.33073 4.96663 9.20006 4.65263 8.93873 4.39129C8.6774 4.12996 8.36362 3.99951 7.9974 3.99996C7.63073 3.99996 7.31673 4.13063 7.0554 4.39196C6.79406 4.65329 6.66362 4.96707 6.66406 5.33329C6.66406 5.69996 6.79473 6.01396 7.05606 6.27529C7.3174 6.53663 7.63117 6.66707 7.9974 6.66663Z" fill="currentColor"/>
</svg>
