<svg width="16" height="16" viewBox="0 0 16 16" fill="none" xmlns="http://www.w3.org/2000/svg">
<g id="Estoque">
<path id="Vector" d="M14 10.9999C14 11.2533 13.86 11.4733 13.6467 11.5866L8.38 14.5466C8.27334 14.6266 8.14 14.6666 8 14.6666C7.86 14.6666 7.72667 14.6266 7.62 14.5466L2.35334 11.5866C2.24646 11.5304 2.15701 11.446 2.09472 11.3426C2.03243 11.2392 1.99967 11.1207 2 10.9999V4.99992C2 4.74659 2.14 4.52659 2.35334 4.41325L7.62 1.45325C7.72667 1.37325 7.86 1.33325 8 1.33325C8.14 1.33325 8.27334 1.37325 8.38 1.45325L13.6467 4.41325C13.86 4.52659 14 4.74659 14 4.99992V10.9999ZM8 2.76659L6.74 3.47992L10.6667 5.73992L11.9733 4.99992L8 2.76659ZM4.02667 4.99992L8 7.23325L9.30667 6.49992L5.38667 4.23325L4.02667 4.99992ZM3.33334 10.6066L7.33334 12.8599V8.38658L3.33334 6.13992V10.6066ZM12.6667 10.6066V6.13992L8.66667 8.38658V12.8599L12.6667 10.6066Z" fill="currentColor"/>
</g>
</svg>
