<svg width="16" height="16" viewBox="0 0 16 16" fill="none" xmlns="http://www.w3.org/2000/svg">
<g id="fornecedor" clip-path="url(#clip0_4703_53302)">
<path id="Vector" d="M13.7743 3.55554H10.2188V4.44443H13.7743V13.7778H10.2188V14.6667H14.6632V4.44443C14.6632 4.20868 14.5695 3.98259 14.4028 3.81589C14.2361 3.64919 14.0101 3.55554 13.7743 3.55554Z" fill="currentColor"/>
<path id="Vector_2" d="M8.83903 1.33337H2.72347C2.47358 1.33337 2.23392 1.43264 2.05722 1.60934C1.88052 1.78605 1.78125 2.0257 1.78125 2.2756V14.6667H9.78125V2.2756C9.78125 2.0257 9.68198 1.78605 9.50528 1.60934C9.32858 1.43264 9.08892 1.33337 8.83903 1.33337ZM8.89236 13.7778H7.55903V12.4445H4.00347V13.7778H2.67014V2.2756C2.67014 2.26859 2.67152 2.26166 2.6742 2.25519C2.67688 2.24872 2.68081 2.24284 2.68576 2.23788C2.69071 2.23293 2.69659 2.229 2.70306 2.22632C2.70953 2.22364 2.71647 2.22226 2.72347 2.22226H8.83903C8.84603 2.22226 8.85297 2.22364 8.85944 2.22632C8.86591 2.229 8.87179 2.23293 8.87674 2.23788C8.88169 2.24284 8.88562 2.24872 8.8883 2.25519C8.89098 2.26166 8.89236 2.26859 8.89236 2.2756V13.7778Z" fill="currentColor"/>
<path id="Vector_3" d="M3.55469 3.55554H4.44358V4.44443H3.55469V3.55554Z" fill="currentColor"/>
<path id="Vector_4" d="M5.33594 3.55554H6.22483V4.44443H5.33594V3.55554Z" fill="currentColor"/>
<path id="Vector_5" d="M7.10938 3.55554H7.99826V4.44443H7.10938V3.55554Z" fill="currentColor"/>
<path id="Vector_6" d="M3.55469 5.77783H4.44358V6.66672H3.55469V5.77783Z" fill="currentColor"/>
<path id="Vector_7" d="M5.33594 5.77783H6.22483V6.66672H5.33594V5.77783Z" fill="currentColor"/>
<path id="Vector_8" d="M7.10938 5.77783H7.99826V6.66672H7.10938V5.77783Z" fill="currentColor"/>
<path id="Vector_9" d="M3.55469 8H4.44358V8.88889H3.55469V8Z" fill="currentColor"/>
<path id="Vector_10" d="M5.33594 8H6.22483V8.88889H5.33594V8Z" fill="currentColor"/>
<path id="Vector_11" d="M7.10938 8H7.99826V8.88889H7.10938V8Z" fill="currentColor"/>
<path id="Vector_12" d="M3.55469 10.2222H4.44358V11.1111H3.55469V10.2222Z" fill="currentColor"/>
<path id="Vector_13" d="M5.33594 10.2222H6.22483V11.1111H5.33594V10.2222Z" fill="currentColor"/>
<path id="Vector_14" d="M7.10938 10.2222H7.99826V11.1111H7.10938V10.2222Z" fill="currentColor"/>
<path id="Vector_15" d="M10.2188 5.77783H11.1076V6.66672H10.2188V5.77783Z" fill="currentColor"/>
<path id="Vector_16" d="M12 5.77783H12.8889V6.66672H12V5.77783Z" fill="currentColor"/>
<path id="Vector_17" d="M10.2188 8H11.1076V8.88889H10.2188V8Z" fill="currentColor"/>
<path id="Vector_18" d="M12 8H12.8889V8.88889H12V8Z" fill="currentColor"/>
<path id="Vector_19" d="M10.2188 10.2222H11.1076V11.1111H10.2188V10.2222Z" fill="currentColor"/>
<path id="Vector_20" d="M12 10.2222H12.8889V11.1111H12V10.2222Z" fill="currentColor"/>
</g>
<defs>
<clipPath id="clip0_4703_53302">
<rect width="16" height="16" fill="white"/>
</clipPath>
</defs>
</svg>
