<svg width="16" height="16" viewBox="0 0 16 16" fill="none" xmlns="http://www.w3.org/2000/svg">
<g id="lubrificante">
<g id="Group">
<path id="Vector" fill-rule="evenodd" clip-rule="evenodd" d="M6.66675 2.66659C6.66675 2.31296 6.80722 1.97382 7.05727 1.72378C7.30732 1.47373 7.64646 1.33325 8.00008 1.33325H10.0001C10.3537 1.33325 10.6928 1.47373 10.9429 1.72378C11.1929 1.97382 11.3334 2.31296 11.3334 2.66659V3.33325C11.8638 3.33325 12.3726 3.54397 12.7476 3.91904C13.1227 4.29411 13.3334 4.80282 13.3334 5.33325V12.6666C13.3334 13.197 13.1227 13.7057 12.7476 14.0808C12.3726 14.4559 11.8638 14.6666 11.3334 14.6666H4.66675C4.13632 14.6666 3.62761 14.4559 3.25253 14.0808C2.87746 13.7057 2.66675 13.197 2.66675 12.6666V7.11125C2.66675 6.67851 2.8071 6.25744 3.06675 5.91125L4.40008 4.13325C4.58638 3.88486 4.82794 3.68325 5.10565 3.5444C5.38337 3.40554 5.68959 3.33325 6.00008 3.33325H6.66675V2.66659ZM10.0001 2.66659V3.33325H8.00008V2.66659H10.0001ZM5.46675 4.93325C5.52885 4.85045 5.60937 4.78325 5.70194 4.73697C5.79451 4.69068 5.89658 4.66658 6.00008 4.66658H11.3334C11.5102 4.66658 11.6798 4.73682 11.8048 4.86185C11.9298 4.98687 12.0001 5.15644 12.0001 5.33325V12.6666C12.0001 12.8434 11.9298 13.013 11.8048 13.138C11.6798 13.263 11.5102 13.3333 11.3334 13.3333H4.66675C4.48994 13.3333 4.32037 13.263 4.19534 13.138C4.07032 13.013 4.00008 12.8434 4.00008 12.6666V7.11125C4.00008 6.967 4.04687 6.82665 4.13341 6.71125L5.46675 4.93325ZM6.66675 7.99992C6.66675 7.82311 6.59651 7.65354 6.47149 7.52851C6.34646 7.40349 6.17689 7.33325 6.00008 7.33325C5.82327 7.33325 5.6537 7.40349 5.52868 7.52851C5.40365 7.65354 5.33341 7.82311 5.33341 7.99992V11.3333C5.33341 11.5101 5.40365 11.6796 5.52868 11.8047C5.6537 11.9297 5.82327 11.9999 6.00008 11.9999C6.17689 11.9999 6.34646 11.9297 6.47149 11.8047C6.59651 11.6796 6.66675 11.5101 6.66675 11.3333V7.99992Z" fill="currentColor"/>
</g>
</g>
</svg>
