<svg width="16" height="16" viewBox="0 0 16 16" fill="none" xmlns="http://www.w3.org/2000/svg">
  <path d="M7.9974 14.6666C8.73073 14.6666 9.33073 14.0666 9.33073 13.3333H6.66406C6.66406 14.0666 7.26406 14.6666 7.9974 14.6666ZM11.9974 10.6666V7.33329C11.9974 5.28663 10.9107 3.57329 8.9974 3.11996V2.66663C8.9974 2.11329 8.55073 1.66663 7.9974 1.66663C7.44406 1.66663 6.9974 2.11329 6.9974 2.66663V3.11996C5.09073 3.57329 3.9974 5.27996 3.9974 7.33329V10.6666L2.66406 12V12.6666H13.3307V12L11.9974 10.6666ZM10.6641 11.3333H5.33073V7.33329C5.33073 5.67996 6.3374 4.33329 7.9974 4.33329C9.6574 4.33329 10.6641 5.67996 10.6641 7.33329V11.3333Z" fill="currentColor"/>
</svg>
