<svg width="24" height="24" viewBox="0 0 24 24" fill="none" xmlns="http://www.w3.org/2000/svg">
<path fill-rule="evenodd" clip-rule="evenodd" d="M12 2.4C11.0453 2.4 10.1296 2.77928 9.45446 3.45442C8.77933 4.12955 8.40005 5.04522 8.40005 6V8.37551H15.6V6C15.6 5.04522 15.2208 4.12955 14.5456 3.45442C13.8705 2.77928 12.9548 2.4 12 2.4ZM18 8.37551V6C18 4.4087 17.3679 2.88258 16.2427 1.75736C15.1175 0.632141 13.5913 0 12 0C10.4087 0 8.88263 0.632141 7.75741 1.75736C6.63219 2.88258 6.00005 4.4087 6.00005 6V8.37551H3.75005C3.08731 8.37551 2.55005 8.91277 2.55005 9.57551V22.8C2.55005 23.4627 3.08731 24 3.75005 24H20.25C20.9128 24 21.45 23.4627 21.45 22.8V9.57551C21.45 8.91277 20.9128 8.37551 20.25 8.37551H18ZM4.95005 10.7755V21.6H19.05V10.7755H4.95005ZM12 13.5184C12.6628 13.5184 13.2 14.0556 13.2 14.7184V17.6571C13.2 18.3199 12.6628 18.8571 12 18.8571C11.3373 18.8571 10.8 18.3199 10.8 17.6571V14.7184C10.8 14.0556 11.3373 13.5184 12 13.5184Z" fill="currentColor"/>
</svg>
