<svg width="16" height="16" viewBox="0 0 16 16" fill="none" xmlns="http://www.w3.org/2000/svg">
<g id="Plano">
<path id="Vector" d="M12.6667 2.00008H9.88C9.6 1.22675 8.86667 0.666748 8 0.666748C7.13333 0.666748 6.4 1.22675 6.12 2.00008H3.33333C2.97971 2.00008 2.64057 2.14056 2.39052 2.39061C2.14048 2.64065 2 2.97979 2 3.33341V12.6667C2 13.0204 2.14048 13.3595 2.39052 13.6096C2.64057 13.8596 2.97971 14.0001 3.33333 14.0001H12.6667C13.0203 14.0001 13.3594 13.8596 13.6095 13.6096C13.8595 13.3595 14 13.0204 14 12.6667V3.33341C14 2.97979 13.8595 2.64065 13.6095 2.39061C13.3594 2.14056 13.0203 2.00008 12.6667 2.00008ZM8 2.00008C8.17681 2.00008 8.34638 2.07032 8.4714 2.19534C8.59643 2.32037 8.66667 2.48994 8.66667 2.66675C8.66667 2.84356 8.59643 3.01313 8.4714 3.13815C8.34638 3.26318 8.17681 3.33341 8 3.33341C7.82319 3.33341 7.65362 3.26318 7.5286 3.13815C7.40357 3.01313 7.33333 2.84356 7.33333 2.66675C7.33333 2.48994 7.40357 2.32037 7.5286 2.19534C7.65362 2.07032 7.82319 2.00008 8 2.00008ZM4.66667 4.66675H11.3333V3.33341H12.6667V12.6667H3.33333V3.33341H4.66667V4.66675Z" fill="currentColor"/>
</g>
</svg>
