<svg width="16" height="16" viewBox="0 0 16 16" fill="none" xmlns="http://www.w3.org/2000/svg">
<g id="Responsaveis">
<path id="Vector" d="M2.66927 14.6667C2.30261 14.6667 1.98861 14.536 1.72727 14.2747C1.46594 14.0134 1.33549 13.6996 1.33594 13.3334V6.00004C1.33594 5.63338 1.46661 5.31938 1.72794 5.05804C1.98927 4.79671 2.30305 4.66626 2.66927 4.66671H6.00261V2.66671C6.00261 2.30004 6.13327 1.98604 6.39461 1.72471C6.65594 1.46338 6.96972 1.33293 7.33594 1.33338H8.66927C9.03594 1.33338 9.34994 1.46404 9.61127 1.72538C9.87261 1.98671 10.003 2.30049 10.0026 2.66671V4.66671H13.3359C13.7026 4.66671 14.0166 4.79738 14.2779 5.05871C14.5393 5.32004 14.6697 5.63382 14.6693 6.00004V13.3334C14.6693 13.7 14.5386 14.014 14.2773 14.2754C14.0159 14.5367 13.7022 14.6672 13.3359 14.6667H2.66927ZM2.66927 13.3334H13.3359V6.00004H10.0026C10.0026 6.36671 9.87194 6.68071 9.61061 6.94204C9.34927 7.20338 9.03549 7.33382 8.66927 7.33338H7.33594C6.96927 7.33338 6.65527 7.20271 6.39394 6.94138C6.13261 6.68004 6.00216 6.36626 6.00261 6.00004H2.66927V13.3334ZM4.00261 12H8.00261V11.7C8.00261 11.5112 7.94972 11.336 7.84394 11.1747C7.73816 11.0134 7.59105 10.8885 7.40261 10.8C7.18038 10.7 6.95549 10.6249 6.72794 10.5747C6.50038 10.5245 6.25861 10.4996 6.00261 10.5C5.74705 10.5 5.50527 10.5252 5.27727 10.5754C5.04927 10.6256 4.82438 10.7005 4.60261 10.8C4.41372 10.8889 4.26638 11.014 4.16061 11.1754C4.05483 11.3367 4.00216 11.5116 4.00261 11.7V12ZM9.33594 11H12.0026V10H9.33594V11ZM6.00261 10C6.28038 10 6.51661 9.90271 6.71127 9.70804C6.90594 9.51338 7.00305 9.27738 7.00261 9.00004C7.00261 8.72226 6.90527 8.48604 6.71061 8.29138C6.51594 8.09671 6.27994 7.9996 6.00261 8.00004C5.72483 8.00004 5.48861 8.09738 5.29394 8.29204C5.09927 8.48671 5.00216 8.72271 5.00261 9.00004C5.00261 9.27782 5.09994 9.51404 5.29461 9.70871C5.48927 9.90338 5.72527 10.0005 6.00261 10ZM9.33594 9.00004H12.0026V8.00004H9.33594V9.00004ZM7.33594 6.00004H8.66927V2.66671H7.33594V6.00004Z" fill="currentColor"/>
</g>
</svg>
