<svg width="406" height="406" viewBox="0 0 406 406" fill="none" xmlns="http://www.w3.org/2000/svg">
<path d="M202.228 394.673C307.889 394.673 393.544 345.22 393.544 284.216C393.544 223.213 307.889 173.76 202.228 173.76C96.5679 173.76 10.9131 223.213 10.9131 284.216C10.9131 345.22 96.5679 394.673 202.228 394.673Z" fill="#B0B0B0"/>
<path d="M312.1 322.543C299.555 315.3 299.555 303.558 312.1 296.315C324.645 289.072 344.986 289.072 357.531 296.315C370.077 303.558 370.077 315.3 357.531 322.543C344.986 329.786 324.645 329.786 312.1 322.543Z" fill="#727272"/>
<path d="M56.9373 323.549L23.9376 304.5C22.0781 303.428 22.0781 301.682 23.9376 300.61L215.886 189.789C216.929 189.26 218.083 188.985 219.252 188.985C220.421 188.985 221.575 189.26 222.618 189.789L255.626 208.838C257.485 209.91 257.485 211.656 255.626 212.728L63.6769 323.549C62.6322 324.078 61.4779 324.354 60.3071 324.354C59.1363 324.354 57.9819 324.078 56.9373 323.549Z" fill="#727272"/>
<path d="M175.554 289.592L203.926 273.189C206.849 271.5 208.311 269.292 208.311 267.075C208.311 264.858 208.311 263.129 208.311 263.129L178.884 246.531C178.062 246 177.377 245.281 176.886 244.434C176.395 243.588 176.111 242.637 176.058 241.659V206.67L126.526 235.301V270.274C126.583 271.251 126.868 272.2 127.359 273.046C127.85 273.892 128.532 274.612 129.352 275.146L154.394 289.567C160.224 292.97 169.708 292.97 175.554 289.592Z" fill="#252525"/>
<g opacity="0.6">
<path opacity="0.6" d="M175.554 289.592L203.926 273.189C206.849 271.5 208.311 269.292 208.311 267.075C208.311 264.858 208.311 263.129 208.311 263.129L178.884 246.531C178.062 246 177.377 245.281 176.886 244.434C176.395 243.588 176.111 242.637 176.058 241.659V206.67L126.526 235.301V270.274C126.583 271.251 126.868 272.2 127.359 273.046C127.85 273.892 128.532 274.612 129.352 275.146L154.394 289.567C160.224 292.97 169.708 292.97 175.554 289.592Z" fill="#4B4B4B"/>
</g>
<path opacity="0.3" d="M138.406 276.47V280.4L129.327 275.162C128.508 274.628 127.826 273.909 127.337 273.063C126.847 272.216 126.564 271.267 126.51 270.29V235.301L135.945 229.853C136.14 232.248 136.351 234.725 136.554 237.161L129.92 240.977V268.301C129.973 269.279 130.256 270.23 130.747 271.077C131.239 271.923 131.923 272.642 132.746 273.173L138.406 276.47Z" fill="#4B4B4B"/>
<path d="M129.92 268.309C129.976 269.286 130.261 270.236 130.752 271.082C131.243 271.929 131.926 272.648 132.746 273.181L154.362 285.637C160.208 289.007 169.692 289.015 175.547 285.637L203.967 269.235C209.821 265.857 209.821 260.384 203.967 257.006L182.335 244.55C181.517 244.015 180.836 243.296 180.346 242.45C179.857 241.603 179.573 240.654 179.517 239.678V212.346L129.985 240.977L129.92 268.309Z" fill="#252525"/>
<path opacity="0.3" d="M129.92 268.309C129.976 269.286 130.261 270.236 130.752 271.082C131.243 271.929 131.926 272.648 132.746 273.181L154.362 285.637C160.208 289.007 169.692 289.015 175.547 285.637L203.967 269.235C209.821 265.857 209.821 260.384 203.967 257.006L182.335 244.55C181.517 244.015 180.836 243.296 180.346 242.45C179.857 241.603 179.573 240.654 179.517 239.678V212.346L129.985 240.977L129.92 268.309Z" fill="#4B4B4B"/>
<path opacity="0.5" d="M188.059 247.887L182.302 244.566C181.484 244.031 180.803 243.312 180.313 242.466C179.824 241.62 179.54 240.67 179.485 239.694V212.346L129.953 240.977V268.309C130.008 269.286 130.293 270.236 130.784 271.082C131.275 271.929 131.958 272.648 132.778 273.181L138.462 276.429L188.059 247.887Z" fill="#4B4B4B"/>
<path d="M208.319 263.137V267.083C208.319 269.3 206.849 271.5 203.934 273.197L175.514 289.592C172.404 291.252 168.93 292.114 165.405 292.101V288.171C168.93 288.184 172.404 287.322 175.514 285.662L203.934 269.251C206.849 267.57 208.319 265.353 208.319 263.137Z" fill="#252525"/>
<path opacity="0.5" d="M208.319 263.137V267.083C208.319 269.3 206.849 271.5 203.934 273.197L175.514 289.592C172.404 291.252 168.93 292.114 165.405 292.101V288.171C168.93 288.184 172.404 287.322 175.514 285.662L203.934 269.251C206.849 267.57 208.319 265.353 208.319 263.137Z" fill="#4B4B4B"/>
<path d="M50.3442 302.275C51.415 302.792 52.5923 303.051 53.7813 303.03C54.9702 303.008 56.1376 302.708 57.1894 302.153L248.821 191.518C249.849 190.848 250.704 189.945 251.318 188.883C251.931 187.821 252.286 186.629 252.354 185.404V30.3769C252.317 29.1852 251.999 28.019 251.426 26.9734C250.853 25.9278 250.041 25.0323 249.057 24.36C247.987 23.8422 246.811 23.5841 245.623 23.6067C244.435 23.6293 243.269 23.9319 242.22 24.4899L50.5878 135.157C49.5638 135.832 48.7138 136.739 48.107 137.804C47.5002 138.87 47.1539 140.063 47.0962 141.288V296.291C47.1324 297.473 47.4451 298.63 48.0091 299.669C48.5732 300.708 49.3729 301.601 50.3442 302.275Z" fill="#252525"/>
<path d="M57.2138 302.145L248.846 191.51C249.875 190.841 250.731 189.939 251.345 188.876C251.959 187.814 252.313 186.621 252.378 185.396V30.3769C252.378 28.1276 250.795 27.2101 248.846 28.3388L57.2138 138.974C56.1859 139.643 55.3303 140.546 54.7166 141.609C54.1028 142.671 53.7483 143.863 53.6816 145.088V300.107C53.6816 302.356 55.265 303.274 57.2138 302.145Z" fill="#252525"/>
<path opacity="0.5" d="M57.2138 302.145L248.846 191.51C249.875 190.841 250.731 189.939 251.345 188.876C251.959 187.814 252.313 186.621 252.378 185.396V30.3769C252.378 28.1276 250.795 27.2101 248.846 28.3388L57.2138 138.974C56.1859 139.643 55.3303 140.546 54.7166 141.609C54.1028 142.671 53.7483 143.863 53.6816 145.088V300.107C53.6816 302.356 55.265 303.274 57.2138 302.145Z" fill="#4B4B4B"/>
<path d="M56.694 306.173C55.6891 306.611 54.6011 306.827 53.5049 306.804C52.4086 306.782 51.3303 306.522 50.3442 306.043C49.3707 305.367 48.5697 304.472 48.0055 303.429C47.4414 302.387 47.1299 301.227 47.0962 300.042V285.93L53.714 289.762V303.875C53.6734 305.929 54.9807 306.863 56.694 306.173Z" fill="#252525"/>
<path opacity="0.5" d="M56.694 306.173C55.6891 306.611 54.6011 306.827 53.5049 306.804C52.4086 306.782 51.3303 306.522 50.3442 306.043C49.3707 305.367 48.5697 304.472 48.0055 303.429C47.4414 302.387 47.1299 301.227 47.0962 300.042V285.93L53.714 289.762V303.875C53.6734 305.929 54.9807 306.863 56.694 306.173Z" fill="#4B4B4B"/>
<path d="M53.6733 289.762V303.875C53.6733 306.124 55.2973 307.033 57.2055 305.913L248.838 195.278C249.861 194.611 250.713 193.713 251.327 192.657C251.94 191.601 252.297 190.415 252.37 189.196V175.018L53.6733 289.762Z" fill="#252525"/>
<path opacity="0.3" d="M53.6816 289.73V303.875C53.6816 306.124 55.3056 307.033 57.2138 305.913L248.846 195.278C249.868 194.61 250.719 193.712 251.331 192.656C251.943 191.599 252.299 190.415 252.37 189.196V175.018L53.6816 289.73Z" fill="#4B4B4B"/>
<path d="M60.2993 272.02V147.289C60.3371 146.554 60.5481 145.838 60.915 145.2C61.2818 144.563 61.7943 144.021 62.4105 143.618L243.6 38.976C244.769 38.302 245.719 38.8461 245.719 40.194V164.99C245.68 165.726 245.468 166.441 245.099 167.079C244.731 167.717 244.217 168.259 243.6 168.66L62.4186 273.279C61.2494 273.952 60.2993 273.4 60.2993 272.02Z" fill="#252525"/>
<path d="M60.2993 272.02V147.289C60.3371 146.554 60.5481 145.838 60.915 145.2C61.2818 144.563 61.7943 144.021 62.4105 143.618L243.6 38.976C244.769 38.302 245.719 38.8461 245.719 40.194V164.99C245.68 165.726 245.468 166.441 245.099 167.079C244.731 167.717 244.217 168.259 243.6 168.66L62.4186 273.279C61.2494 273.952 60.2993 273.4 60.2993 272.02Z" fill="#5E5E5E"/>
<path d="M153.021 236.885C152.057 237.512 151.254 238.358 150.678 239.354C150.103 240.351 149.77 241.469 149.708 242.618C149.708 244.729 151.194 245.589 153.021 244.534C153.987 243.906 154.79 243.058 155.366 242.061C155.942 241.063 156.274 239.943 156.334 238.793C156.334 236.682 154.848 235.829 153.021 236.885Z" fill="#252525"/>
<path opacity="0.7" d="M54.7209 141.597C54.0916 142.654 53.7319 143.851 53.6734 145.08V289.762L47.0962 285.93V141.288C47.1388 140.054 47.4966 138.852 48.1356 137.796L54.7209 141.597Z" fill="#4B4B4B"/>
<path opacity="0.3" d="M252.337 29.7923C252.086 27.9734 250.616 27.3563 248.838 28.3388L57.2057 138.974C56.1667 139.624 55.3091 140.526 54.7128 141.597L48.0869 137.772C48.6871 136.702 49.5472 135.8 50.5879 135.149L242.22 24.5224C243.27 23.9643 244.438 23.6617 245.627 23.6391C246.816 23.6165 247.994 23.8746 249.065 24.3925C249.965 25.0058 250.723 25.8053 251.288 26.7369C251.852 27.6685 252.21 28.7104 252.337 29.7923Z" fill="#4B4B4B"/>
<path d="M262.674 48.8742C262.389 48.7314 262.071 48.6688 261.754 48.6931C261.436 48.7174 261.131 48.8278 260.871 49.0123L80.0552 153.468C79.3417 153.94 78.7494 154.573 78.3262 155.317C77.903 156.06 77.6608 156.893 77.6192 157.747V281.715C77.5939 282.134 77.677 282.552 77.8605 282.929C78.044 283.306 78.3217 283.629 78.6667 283.867C79.0646 284.086 81.192 285.321 81.8254 285.662C82.0494 285.776 82.2998 285.828 82.5509 285.814C82.802 285.8 83.0448 285.719 83.2545 285.58L264.03 181.125C264.744 180.653 265.336 180.019 265.759 179.276C266.182 178.533 266.424 177.7 266.466 176.845V52.2359C266.502 51.921 266.45 51.6023 266.315 51.3154C266.18 51.0285 265.968 50.7849 265.703 50.6119C265.297 50.344 263.129 49.1422 262.674 48.8742Z" fill="#4197de"/>
<path d="M83.2138 155.222L264.038 50.8068C265.402 49.9948 266.474 50.6606 266.474 52.2359V176.845C266.433 177.7 266.19 178.533 265.767 179.276C265.344 180.019 264.752 180.653 264.038 181.125L83.2138 285.58C81.8497 286.392 80.7778 285.085 80.7778 283.51V159.501C80.8207 158.647 81.0635 157.815 81.4865 157.072C81.9096 156.328 82.5013 155.695 83.2138 155.222Z" fill="white"/>
<path d="M265.142 51.2778C265.621 51.2778 265.695 51.8787 265.695 52.236V176.845C265.651 177.561 265.441 178.256 265.081 178.877C264.722 179.497 264.223 180.025 263.624 180.418L82.8241 284.874C82.7027 284.953 82.5626 284.998 82.4181 285.004C81.9633 285.004 81.6061 284.306 81.6061 283.51V159.501C81.6453 158.786 81.8488 158.089 82.2008 157.465C82.5529 156.842 83.044 156.307 83.6361 155.904L264.444 51.5052C264.653 51.3702 264.894 51.2919 265.142 51.2778ZM265.142 50.4658C264.751 50.4825 264.371 50.6 264.038 50.8069L83.2138 155.222C82.5013 155.695 81.9096 156.328 81.4865 157.072C81.0635 157.815 80.8207 158.647 80.7778 159.501V283.51C80.7778 284.76 81.4762 285.816 82.4018 285.816C82.6885 285.81 82.9687 285.729 83.2138 285.58L264.03 181.125C264.743 180.653 265.336 180.019 265.759 179.276C266.182 178.533 266.424 177.7 266.466 176.845V52.236C266.466 51.1154 265.914 50.4658 265.102 50.4658H265.142Z" fill="#727272"/>
<path d="M78.6179 283.867C78.8858 284.005 80.8103 285.101 81.6548 285.588C81.3515 285.337 81.1113 285.018 80.9534 284.657C80.7955 284.296 80.7242 283.903 80.7453 283.51V167.597L77.5785 165.745V281.715C77.5523 282.133 77.6342 282.55 77.8162 282.927C77.9983 283.304 78.2744 283.628 78.6179 283.867Z" fill="#4197de"/>
<path d="M266.507 52.2116C266.507 50.6526 265.394 50.0192 264.071 50.8068L83.2138 155.222C82.5013 155.695 81.9096 156.328 81.4865 157.072C81.0635 157.815 80.8207 158.647 80.7778 159.501V167.621L266.507 60.3316V52.2116Z" fill="url(#paint0_linear_3442_87128)"/>
<g opacity="0.4">
<path opacity="0.4" d="M264.038 50.8068L83.2136 155.214C82.4879 155.671 81.89 156.306 81.4759 157.057L78.3335 155.23C78.7469 154.505 79.3397 153.898 80.0549 153.468L260.871 49.0123C261.13 48.8265 261.435 48.7147 261.752 48.689C262.07 48.6632 262.388 48.7245 262.674 48.8661C263.112 49.1422 265.167 50.3034 265.694 50.5876C265.421 50.4863 265.128 50.4534 264.839 50.4916C264.55 50.5298 264.275 50.638 264.038 50.8068Z" fill="#BF0000"/>
</g>
<path opacity="0.15" d="M77.5786 165.754V157.707C77.612 156.83 77.8722 155.976 78.3338 155.23L81.4843 157.049C81.0293 157.782 80.7745 158.622 80.7454 159.485V167.605L77.5786 165.754Z" fill="#4B4B4B"/>
<path opacity="0.5" d="M236.95 150.342C236.82 149.408 236.065 149.067 235.155 149.595L126.859 212.119C126.325 212.451 125.886 212.915 125.584 213.467L118.804 209.553C119.108 209.01 119.543 208.552 120.07 208.221L228.375 145.697C228.935 145.413 229.554 145.264 230.182 145.264C230.81 145.264 231.429 145.413 231.988 145.697L235.155 147.516C235.638 147.832 236.048 148.248 236.357 148.735C236.667 149.223 236.869 149.77 236.95 150.342Z" fill="#727272"/>
<path d="M126.55 247.489C126.02 247.698 125.452 247.793 124.882 247.768C124.313 247.743 123.755 247.598 123.246 247.343L120.079 245.524C119.553 245.182 119.115 244.72 118.801 244.177C118.486 243.634 118.304 243.025 118.268 242.398V211.347C118.292 210.714 118.477 210.096 118.804 209.553L125.584 213.467C125.255 214.003 125.07 214.616 125.048 215.245V246.304C125.048 247.335 125.698 247.814 126.55 247.489Z" fill="#4197de"/>
<path d="M126.859 212.119L235.155 149.595C236.154 149.018 236.966 149.481 236.966 150.634V181.693C236.932 182.321 236.75 182.932 236.435 183.477C236.121 184.021 235.682 184.484 235.155 184.827L126.875 247.351C125.876 247.928 125.064 247.457 125.064 246.304V215.253C125.097 214.627 125.276 214.017 125.588 213.472C125.9 212.928 126.335 212.464 126.859 212.119Z" fill="url(#paint1_linear_3442_87128)"/>
<path d="M199.663 162.27L120.087 208.221C119.559 208.552 119.124 209.01 118.82 209.553L125.6 213.467C125.902 212.915 126.341 212.451 126.875 212.119L206.451 166.176L199.663 162.27Z" fill="#B0B0B0"/>
<path d="M206.435 166.176L126.859 212.119C126.332 212.462 125.893 212.925 125.579 213.47C125.264 214.014 125.082 214.625 125.048 215.253V246.296C125.048 247.449 125.86 247.92 126.859 247.343L206.435 201.4V166.176Z" fill="#5E5E5E"/>
<path d="M145.21 216.401L186.273 192.699C187.97 191.716 189.35 192.415 189.35 194.258C189.275 195.293 188.956 196.296 188.419 197.185C187.883 198.074 187.145 198.823 186.265 199.373L145.21 223.084C143.513 224.066 142.125 223.368 142.125 221.525C142.201 220.489 142.52 219.485 143.056 218.595C143.592 217.705 144.33 216.953 145.21 216.401Z" fill="url(#paint2_linear_3442_87128)"/>
<path d="M225.631 182.213L217.746 186.76L218.972 175.701C218.022 175.197 217.421 173.971 217.421 172.209C217.421 169.067 219.338 165.421 221.692 164.089C224.047 162.757 225.955 164.17 225.955 167.337C225.907 169.2 225.375 171.019 224.413 172.615L225.631 182.213Z" fill="#B0B0B0"/>
<path d="M225.639 182.213L218.696 178.21L217.746 186.768L225.639 182.213Z" fill="#5E5E5E"/>
<path d="M221.676 164.065C219.959 165.225 218.678 166.925 218.038 168.896L224.396 172.566C225.358 170.97 225.89 169.151 225.939 167.288C225.955 164.146 224.047 162.709 221.676 164.065Z" fill="#5E5E5E"/>
<path d="M183.35 127.24C180.646 125.681 176.919 125.901 172.794 128.28C164.56 133.038 157.885 144.593 157.885 154.101C157.885 158.876 159.574 162.221 162.286 163.764L167.54 166.817C170.236 168.376 173.963 168.149 178.096 165.77C186.33 161.02 193.004 149.457 193.004 139.948C193.004 135.198 191.332 131.828 188.636 130.31" fill="#4197de"/>
<path d="M178.088 131.341C169.854 136.099 163.18 147.662 163.18 157.163C163.18 166.663 169.854 170.528 178.088 165.77C186.322 161.011 193.004 149.457 192.996 139.948C192.988 130.44 186.314 126.591 178.088 131.341Z" fill="url(#paint3_linear_3442_87128)"/>
<path d="M186.313 152.437V153.525C184.341 157.046 181.512 160.012 178.088 162.148C174.88 163.992 171.981 164.195 169.854 163.017V160.776C169.963 158.444 170.629 156.173 171.796 154.151C172.962 152.13 174.597 150.417 176.561 149.156L178.729 147.906C180.645 146.801 182.513 146.655 183.975 147.508C185.436 148.361 186.313 150.155 186.313 152.437Z" fill="#4197de"/>
<path opacity="0.4" d="M183.35 127.24L188.628 130.31C185.932 128.743 182.205 128.962 178.072 131.341C172.68 134.459 167.954 140.492 165.339 146.956L160.053 143.894C162.676 137.398 167.361 131.398 172.785 128.28C176.927 125.909 180.654 125.681 183.35 127.24Z" fill="#4B4B4B"/>
<path opacity="0.2" d="M167.353 166.695L162.295 163.764C159.583 162.221 157.894 158.892 157.894 154.101L163.18 157.171C163.212 161.799 164.771 165.096 167.353 166.695Z" fill="#4B4B4B"/>
<path opacity="0.1" d="M160.069 143.895L165.356 146.956C164.001 150.192 163.274 153.655 163.212 157.163L157.926 154.093C157.991 150.589 158.718 147.129 160.069 143.895Z" fill="white"/>
<path d="M176.204 147.394C175.7 147.4 175.204 147.271 174.767 147.021C174.24 146.669 173.817 146.182 173.544 145.61C173.271 145.039 173.158 144.404 173.216 143.773C173.285 142.293 173.707 140.852 174.447 139.569C175.188 138.286 176.224 137.2 177.471 136.4C177.972 136 178.581 135.761 179.22 135.713C179.859 135.666 180.497 135.812 181.052 136.133C181.606 136.454 182.051 136.935 182.328 137.513C182.604 138.091 182.7 138.739 182.603 139.372C182.532 140.851 182.11 142.292 181.37 143.574C180.629 144.857 179.593 145.944 178.348 146.745C177.703 147.147 176.964 147.371 176.204 147.394Z" fill="#F7F7F7"/>
<path d="M183.975 147.5C182.513 146.647 180.645 146.793 178.729 147.898L176.561 149.148C174.595 150.409 172.961 152.123 171.794 154.147C170.627 156.17 169.962 158.443 169.854 160.776V163.025C171.981 164.203 174.88 164 178.088 162.156C181.512 160.02 184.341 157.054 186.313 153.533V152.445C186.313 150.155 185.469 148.36 183.975 147.5Z" fill="#F7F7F7"/>
<path d="M322.664 183.699C319.254 189.464 315.973 194.474 313.667 196.878C309.291 198.908 299.011 202.042 294.991 202.562C294.285 202.651 293.57 202.484 292.978 202.091C291.394 201.051 290.168 200.881 288.503 200.304C287.196 199.858 286.644 199.232 286.4 199.492C286.149 199.787 286.022 200.169 286.048 200.556C286.074 200.942 286.25 201.304 286.538 201.563C287.163 202.156 287.855 202.674 288.601 203.106C286.818 203.548 284.958 203.581 283.16 203.203C279.677 202.285 278.037 203.958 280.392 207.742C281.204 209.09 284.549 211.258 291.272 210.673C293.671 210.544 296.06 210.273 298.426 209.861C304.873 208.481 312.043 207.149 316.452 205.801C318.093 205.157 319.56 204.139 320.74 202.83C328.153 194.377 330.614 188.352 333.862 182.879L333.586 173.947C328.324 173.768 325.514 178.876 322.664 183.699Z" fill="#FF9395"/>
<path d="M334.487 173.768C332.961 173.554 331.406 173.76 329.989 174.366C328.572 174.971 327.348 175.952 326.448 177.203C322.843 181.823 316.46 192.915 316.46 192.915C316.46 192.915 318.547 198.477 324.183 199.411L333.236 187.182C333.236 187.182 337.524 178.689 334.487 173.768Z" fill="#3182ce"/>
<path d="M354.064 298.443H348.161V308.966H354.064V298.443Z" fill="#FF9395"/>
<path d="M333.602 297.882L327.707 298.093L327.406 286.953L333.602 286.742V297.882Z" fill="#FF9395"/>
<path d="M354.893 207.344C354.893 213.207 354.032 260.441 354.032 260.441C354.162 262.13 355.656 265.248 355.355 271.736C354.909 280.546 354.316 303.704 354.316 303.704C353.303 304.223 352.185 304.504 351.046 304.527C349.908 304.549 348.78 304.312 347.747 303.834C347.747 303.834 342.956 271.354 341.901 262.658C340.975 255.033 338.604 229.796 338.604 229.796L335.413 259.629C336.089 262.83 336.335 266.107 336.143 269.373C335.867 273.433 333.967 294.447 333.967 294.447C332.947 295.049 331.804 295.411 330.624 295.505C329.443 295.599 328.257 295.424 327.155 294.992C327.155 294.992 323.793 263.324 323.728 259.605C323.647 255.382 325.693 207.296 325.693 207.296L354.893 207.344Z" fill="#5E5E5E"/>
<path d="M348.161 305.929V305.052C347.593 305.304 346.285 310.517 343.939 312.742C342.079 314.512 339.546 316.55 338.896 318.523C338.246 320.496 342.428 321.706 344.174 321.39C346.188 321.016 349.696 319.53 350.573 318.142C351.45 316.753 351.864 314.739 352.578 313.732C353.293 312.726 354.941 311.605 355.323 310.436C355.442 309.342 355.328 308.235 354.99 307.188C354.714 306.1 354.421 304.906 354.064 305.012V305.677C353.232 306.361 352.185 306.729 351.109 306.717C350.248 306.79 348.153 306.611 348.161 305.929Z" fill="#1E1E1E"/>
<path d="M327.642 296.193C327.333 296.193 327.081 296.656 326.408 297.419C325.405 298.474 324.233 299.352 322.94 300.018C320.732 301.171 316.444 302.941 314.487 303.859C313.269 304.427 313.326 305.954 314.585 306.822C315.843 307.691 318.872 308.316 322.51 307.472C324.491 307.009 327.073 305.101 328.714 305.207C330.354 305.312 333.399 305.28 334.609 304.395C335.819 303.509 335.331 301.674 334.99 300.091C334.617 298.353 334.178 295.649 333.602 295.771V296.38C332.895 297.501 329.233 297.955 327.674 297.135L327.642 296.193Z" fill="#1E1E1E"/>
<path d="M338.604 229.796C335.533 228.791 332.725 227.112 330.386 224.883C330.386 224.883 332.01 227.977 336.687 230.86L335.68 257.501L338.604 229.796Z" fill="#4B4B4B"/>
<path d="M351.596 174.629C351.596 174.629 356.468 175.749 356.119 184.551L355.104 198.558V219.589C350.768 224.51 331.556 224.153 324.938 219.199C324.938 219.199 325.685 194.312 326.132 184.73C326.448 177.926 328.015 174.499 334.706 173.752L342.932 174.109L351.596 174.629Z" fill="#1E1E1E"/>
<path d="M345.392 156.343C345.42 157.521 345.215 158.693 344.788 159.792C344.36 160.89 343.72 161.894 342.903 162.744C342.086 163.594 341.11 164.273 340.029 164.744C338.948 165.215 337.785 165.467 336.606 165.486C331.734 165.486 328.876 161.279 327.821 156.343C325.872 147.305 331.751 147.191 336.606 147.191C338.985 147.24 341.246 148.232 342.894 149.948C344.541 151.664 345.44 153.964 345.392 156.343Z" fill="#252525"/>
<path d="M349.874 160.037C349.874 160.037 348.526 166.631 347.982 167.719C347.64 168.373 347.058 168.871 346.358 169.107L346.456 164.471L349.874 160.037Z" fill="#252525"/>
<path d="M348.177 150.594C348.177 150.594 349.144 150.35 350.175 151.958C351.052 153.33 351.255 156.416 349.875 160.078L347.333 160.386L348.177 150.594Z" fill="#252525"/>
<path d="M349.111 151.933L352.229 151.99C352.25 151.789 352.23 151.585 352.169 151.392C352.107 151.199 352.007 151.02 351.873 150.868C351.74 150.715 351.576 150.592 351.393 150.506C351.21 150.419 351.01 150.372 350.808 150.366C350.382 150.372 349.973 150.536 349.659 150.825C349.346 151.114 349.151 151.509 349.111 151.933Z" fill="#252525"/>
<path d="M349.493 151.194L351.799 148.978C351.666 148.821 351.502 148.694 351.317 148.603C351.133 148.513 350.932 148.463 350.726 148.454C350.521 148.446 350.316 148.48 350.125 148.555C349.934 148.629 349.76 148.743 349.615 148.888C349.309 149.187 349.126 149.591 349.104 150.018C349.081 150.445 349.22 150.865 349.493 151.194Z" fill="#252525"/>
<path d="M346.569 160.346C347.081 160.662 347.804 159.647 348.437 158.957C349.07 158.267 351.035 157.634 352.058 159.875C353.082 162.116 351.336 164.333 349.874 165.063C347.251 166.363 346.423 164.471 346.423 164.471L346.204 174.913C342.517 180.597 334.154 180.418 337.166 174.637V171.462C335.927 171.668 334.669 171.733 333.415 171.657C331.369 171.332 330.086 169.651 329.46 167.345C328.47 163.642 328.088 160.654 328.933 153.371C329.858 145.397 338.774 145.307 343.549 148.499C348.323 151.69 346.569 160.346 346.569 160.346Z" fill="#FF9395"/>
<path d="M335.461 152.128C337.589 151.917 339.692 151.479 341.827 151.316C342.288 151.26 342.754 151.282 343.208 151.381C344.832 151.828 344.637 153.728 344.897 155.051C345.343 157.341 345.709 161.215 346.569 161.231C346.829 161.231 347.804 159.55 348.437 158.949C348.785 158.431 348.982 157.827 349.005 157.203C349.168 156.261 349.249 155.295 349.322 154.337C349.387 153.525 349.468 152.713 349.468 151.901C349.505 150.983 349.432 150.064 349.249 149.164C349.045 148.399 348.655 147.696 348.112 147.118L347.95 146.94C346.879 145.821 345.581 144.945 344.142 144.374C342.071 143.598 339.9 143.125 337.694 142.969C335.492 142.813 333.299 142.542 331.125 142.157C331.001 142.121 330.868 142.121 330.744 142.157C330.655 142.206 330.581 142.276 330.527 142.361C330.473 142.446 330.441 142.543 330.435 142.644C330.346 143.149 330.402 143.668 330.596 144.142C330.79 144.617 331.114 145.026 331.531 145.324C330.061 145.437 328.372 144.674 326.96 144.284C326.845 144.236 326.722 144.211 326.598 144.211C326.474 144.211 326.351 144.236 326.237 144.284C326.095 144.383 325.994 144.531 325.953 144.698C325.85 145.08 325.836 145.48 325.912 145.868C326.041 147.043 326.478 148.163 327.179 149.116C328.273 150.541 329.819 151.551 331.564 151.982C332.848 152.23 334.162 152.279 335.461 152.128Z" fill="#252525"/>
<path d="M337.175 171.462C337.175 171.462 341.738 170.504 343.33 169.619C344.278 169.1 345.047 168.308 345.538 167.345C345.299 168.312 344.871 169.223 344.28 170.025C343.119 171.584 337.175 172.721 337.175 172.721V171.462Z" fill="#FF9395"/>
<path d="M338.271 159.152C338.262 159.403 338.352 159.647 338.523 159.831C338.693 160.015 338.929 160.124 339.18 160.135C339.379 160.151 339.578 160.107 339.752 160.008C339.925 159.909 340.065 159.76 340.152 159.581C340.239 159.401 340.27 159.2 340.241 159.002C340.212 158.805 340.124 158.621 339.988 158.474C339.853 158.328 339.676 158.226 339.481 158.181C339.287 158.137 339.083 158.152 338.898 158.226C338.712 158.299 338.553 158.427 338.441 158.592C338.329 158.757 338.27 158.952 338.271 159.152Z" fill="black"/>
<path d="M339.732 155.214L341.689 156.343C341.832 156.064 341.864 155.743 341.78 155.442C341.695 155.141 341.501 154.882 341.235 154.719C341.105 154.646 340.961 154.601 340.813 154.586C340.665 154.572 340.516 154.589 340.374 154.635C340.233 154.682 340.103 154.757 339.993 154.857C339.882 154.957 339.793 155.078 339.732 155.214Z" fill="#252525"/>
<path d="M337.58 165.737L335.494 166.549C335.536 166.692 335.607 166.825 335.702 166.94C335.798 167.055 335.916 167.148 336.049 167.215C336.182 167.282 336.328 167.321 336.477 167.33C336.626 167.338 336.775 167.316 336.915 167.264C337.199 167.142 337.426 166.916 337.549 166.632C337.673 166.349 337.684 166.029 337.58 165.737Z" fill="#E20A31"/>
<path d="M329.875 156.05L331.661 154.621C331.581 154.496 331.476 154.39 331.352 154.309C331.228 154.227 331.088 154.173 330.942 154.149C330.795 154.126 330.646 154.133 330.502 154.171C330.359 154.209 330.226 154.276 330.11 154.369C329.871 154.572 329.715 154.855 329.672 155.165C329.629 155.475 329.701 155.79 329.875 156.05Z" fill="#252525"/>
<path d="M330.663 158.884C330.677 159.062 330.742 159.231 330.851 159.372C330.96 159.513 331.108 159.62 331.277 159.678C331.445 159.736 331.627 159.744 331.8 159.701C331.973 159.658 332.129 159.565 332.25 159.434C332.371 159.304 332.452 159.141 332.482 158.965C332.512 158.789 332.49 158.608 332.419 158.445C332.347 158.282 332.23 158.142 332.081 158.044C331.933 157.946 331.758 157.894 331.58 157.893C331.455 157.898 331.331 157.927 331.217 157.979C331.103 158.031 331 158.105 330.915 158.197C330.829 158.289 330.763 158.398 330.72 158.515C330.677 158.633 330.657 158.759 330.663 158.884Z" fill="black"/>
<path d="M335.559 158.121L335.453 163.894L332.173 163.147L335.559 158.121Z" fill="#FF3C40"/>
<path d="M257.655 206.475L262.747 203.536L264.76 201.092L259.677 204.031L257.655 206.475Z" fill="#FCFCFC"/>
<path opacity="0.4" d="M257.655 206.475L262.747 203.536L264.76 201.092L259.677 204.031L257.655 206.475Z" fill="#2e679e"/>
<path d="M271.5 214.465L276.591 211.526L280.838 207.766L275.755 210.698L271.5 214.465Z" fill="#FCFCFC"/>
<path opacity="0.4" d="M271.5 214.465L276.591 211.526L280.838 207.766L275.755 210.698L271.5 214.465Z" fill="#2e679e"/>
<path d="M314.747 224.607C315.951 226.221 316.68 228.139 316.85 230.145C315.652 228.529 314.924 226.612 314.747 224.607ZM326.578 224.762C324.865 213.109 318.604 201.587 311.15 197.275C307.569 195.205 304.256 195.132 301.601 196.683L296.81 199.443L296.542 199.606C296.329 199.723 296.123 199.853 295.925 199.996C295.532 200.266 295.162 200.571 294.821 200.905L294.658 201.059C294.512 201.206 294.358 201.376 294.22 201.538C294.082 201.701 293.871 201.953 293.708 202.172C293.364 202.625 293.052 203.103 292.775 203.601C292.628 203.853 292.49 204.121 292.361 204.413L250.518 180.264L245.435 183.195V186.443L245.865 186.687L246.271 186.922V187.572L245.459 188.051V189.935L251.606 202.927L257.68 206.443L259.702 204.007L265.061 207.214L268.139 212.484L271.533 214.441L275.779 210.673L280.993 213.686L282.746 220.921L291.508 225.988C291.941 227.829 292.483 229.643 293.132 231.42C293.189 231.599 293.262 231.785 293.335 231.988C296.242 239.621 300.862 246.158 306.075 249.17C306.7 249.541 307.355 249.859 308.032 250.12C308.39 250.263 308.756 250.385 309.128 250.486C309.453 250.572 309.778 250.645 310.103 250.705C311.128 250.892 312.179 250.892 313.205 250.705L313.627 250.599C313.829 250.559 314.027 250.502 314.22 250.429L314.674 250.25C314.835 250.192 314.99 250.119 315.137 250.031C315.287 249.966 315.434 249.893 315.576 249.812L315.787 249.682C315.825 249.669 315.861 249.65 315.892 249.625C317.053 248.959 319.912 247.303 320.691 246.864C324.556 244.623 327.057 238.955 327.057 230.941C327.051 228.872 326.891 226.807 326.578 224.762Z" fill="#4B4B4B"/>
<path d="M313.261 234.441C311.247 233.279 309.623 229.837 309.623 226.751C309.623 223.665 311.247 222.098 313.261 223.251C315.275 224.404 316.891 227.855 316.891 230.949C316.891 234.043 315.267 235.602 313.261 234.441ZM321.487 227.693C319.782 216.049 313.521 204.518 306.059 200.215C302.6 198.217 299.4 198.071 296.802 199.443L296.534 199.606C296.321 199.723 296.115 199.853 295.917 199.996C295.523 200.266 295.154 200.571 294.813 200.905L294.65 201.059C294.504 201.205 294.35 201.376 294.212 201.538C294.074 201.701 293.863 201.953 293.7 202.172C293.355 202.625 293.043 203.103 292.766 203.601C292.62 203.853 292.482 204.121 292.352 204.413C291.595 205.982 291.049 207.645 290.728 209.358L245.427 183.195V186.443L245.857 186.687L246.263 186.922V187.572L245.451 188.051V189.935L251.598 202.927L257.672 206.443L259.694 204.007L265.053 207.214L268.13 212.484L271.524 214.441L275.771 210.673L280.984 213.686L282.738 220.921L291.508 225.988C291.941 227.829 292.483 229.643 293.132 231.42C293.189 231.599 293.262 231.785 293.335 231.988C296.242 239.621 300.862 246.158 306.075 249.17C306.7 249.541 307.354 249.859 308.032 250.12C308.39 250.263 308.756 250.385 309.128 250.486C309.453 250.572 309.778 250.645 310.103 250.705C311.128 250.892 312.179 250.892 313.204 250.705L313.627 250.599C313.829 250.559 314.027 250.502 314.219 250.429L314.674 250.25C314.835 250.192 314.99 250.119 315.137 250.031C315.287 249.966 315.433 249.893 315.575 249.812L315.787 249.682C315.825 249.669 315.861 249.65 315.892 249.625C319.595 247.286 321.974 241.7 321.974 233.88C321.96 231.809 321.798 229.741 321.487 227.693Z" fill="white"/>
<path opacity="0.4" d="M316.891 230.941C316.891 234.035 315.267 235.602 313.261 234.441C311.256 233.279 309.624 229.845 309.624 226.751C309.624 223.657 311.248 222.09 313.261 223.251C313.841 223.604 314.346 224.068 314.747 224.615C314.922 226.621 315.65 228.538 316.85 230.153C316.88 230.415 316.894 230.678 316.891 230.941Z" fill="#4B4B4B"/>
<path opacity="0.4" d="M327.041 230.933C327.041 238.947 324.54 244.615 320.675 246.856C319.863 247.295 317.037 248.951 315.876 249.617C319.578 247.278 321.958 241.692 321.958 233.872C321.949 231.804 321.791 229.739 321.487 227.693C319.781 216.049 313.521 204.519 306.059 200.215C302.599 198.217 299.4 198.071 296.802 199.443L301.593 196.683C304.248 195.132 307.561 195.205 311.142 197.275C318.604 201.587 324.864 213.109 326.57 224.762C326.879 226.804 327.036 228.867 327.041 230.933Z" fill="#727272"/>
<path d="M321.958 233.856C321.958 241.676 319.579 247.262 315.876 249.601C317.037 248.935 319.895 247.278 320.675 246.84C324.54 244.599 327.041 238.931 327.041 230.917C327.041 230.624 327.041 230.324 327.041 230.023L321.958 232.963C321.95 233.28 321.958 233.572 321.958 233.856Z" fill="#4B4B4B"/>
<path opacity="0.15" d="M290.923 212.679V214.327L245.435 188.067L246.271 187.58V186.898L290.923 212.679Z" fill="#4B4B4B"/>
<path opacity="0.55" d="M290.923 213.361V214.327L245.435 188.067L246.271 187.58V187.572L290.923 213.361Z" fill="#2e679e"/>
<path opacity="0.55" d="M310.704 246.848C308.979 246.803 307.298 246.302 305.832 245.395C298.418 241.115 292.385 228.383 292.385 217.015C292.385 210.381 294.39 205.428 297.89 203.406C300.326 201.993 303.209 202.172 306.238 203.918C313.643 208.197 319.676 220.97 319.676 232.338C319.676 238.963 317.67 243.925 314.171 245.939C313.115 246.541 311.919 246.855 310.704 246.848ZM301.406 203.284C300.324 203.278 299.259 203.558 298.321 204.096C295.129 205.939 293.221 210.771 293.221 217.007C293.221 228.115 299.068 240.555 306.262 244.68C309.015 246.304 311.621 246.45 313.789 245.2C316.98 243.356 318.888 238.533 318.888 232.297C318.888 221.181 313.042 208.749 305.856 204.616C304.513 203.799 302.978 203.351 301.406 203.317V203.284Z" fill="#2e679e"/>
<path d="M351.198 206.938C353.569 202.448 356.281 192.363 357.629 187.272C359.545 180.045 356.443 175.498 352.919 175.311C350.719 175.652 343.468 202.017 343.468 202.017C342.656 202.659 331.637 208.254 328.097 209.658C327.463 209.898 326.765 209.898 326.132 209.658C324.434 209.041 323.273 209.155 321.609 208.993C320.301 208.863 319.644 208.4 319.473 208.676C319.318 209.019 319.298 209.407 319.417 209.764C319.536 210.12 319.785 210.419 320.115 210.6C320.831 211.018 321.594 211.35 322.388 211.591C320.965 212.023 319.482 212.223 317.995 212.184C314.585 212.111 313.359 213.588 316.006 217.056C317.63 219.216 320.318 219.898 326.318 217.827C328.04 217.226 330.378 216.065 332.563 215.277C337.061 213.653 338.247 213.459 341.673 212.297C346.667 210.608 350.142 208.936 351.198 206.938Z" fill="#FF9395"/>
<path d="M351.596 174.629C353.666 174.913 355.656 175.376 356.882 177.065C358.108 178.754 359.091 181.125 357.889 187.58C356.969 192.12 355.737 196.591 354.202 200.962C354.202 200.962 349.379 203.024 344.255 197.795L347.779 184.17C347.779 184.17 348.348 175.311 351.596 174.629Z" fill="#3182ce"/>
<defs>
<linearGradient id="paint0_linear_3442_87128" x1="72.6988" y1="167.621" x2="219.142" y2="15.6461" gradientUnits="userSpaceOnUse">
<stop stop-color="#2e679e"/>
<stop offset="1" stop-color="#1b3860"/>
</linearGradient>
<linearGradient id="paint1_linear_3442_87128" x1="120.197" y1="247.598" x2="237.982" y2="159.782" gradientUnits="userSpaceOnUse">
<stop stop-color="#2e679e"/>
<stop offset="1" stop-color="#1b3860"/>
</linearGradient>
<linearGradient id="paint2_linear_3442_87128" x1="140.07" y1="223.529" x2="179.189" y2="184.862" gradientUnits="userSpaceOnUse">
<stop stop-color="#2e679e"/>
<stop offset="1" stop-color="#1b3860"/>
</linearGradient>
<linearGradient id="paint3_linear_3442_87128" x1="161.883" y1="167.807" x2="200.728" y2="148.114" gradientUnits="userSpaceOnUse">
<stop stop-color="#2e679e"/>
<stop offset="1" stop-color="#1b3860"/>
</linearGradient>
</defs>
</svg>
