<svg width="24" height="24" viewBox="0 0 24 24" fill="none" xmlns="http://www.w3.org/2000/svg">
<path fill-rule="evenodd" clip-rule="evenodd" d="M20.8 4.22222H17.313L15.3 2H8.7L6.687 4.22222H3.2C1.99 4.22222 1 5.22222 1 6.44444V19.7778C1 21 1.99 22 3.2 22H20.8C22.01 22 23 21 23 19.7778V6.44444C23 5.22222 22.01 4.22222 20.8 4.22222ZM20.8 19.7778H3.2V6.44444H6.687H7.655L8.304 5.72222L9.668 4.22222H14.332L15.696 5.72222L16.345 6.44444H17.313H20.8V19.7778ZM12.0008 17.5552C9.56978 17.5552 7.60078 15.5663 7.60078 13.1108H9.80078L7.05078 10.333L4.30078 13.1108H6.50078C6.50078 16.1775 8.96478 18.6663 12.0008 18.6663C12.9468 18.6663 13.8158 18.3997 14.5968 17.9775L13.7828 17.1552C13.2438 17.4108 12.6388 17.5552 12.0008 17.5552ZM9.40625 8.24455C10.1873 7.82233 11.0562 7.55566 12.0022 7.55566C15.0382 7.55566 17.5022 10.0446 17.5022 13.1112H19.7022L16.9522 15.889L14.2022 13.1112H16.4022C16.4022 10.6557 14.4332 8.66678 12.0022 8.66678C11.3642 8.66678 10.7592 8.81122 10.2203 9.05566L9.40625 8.24455Z" fill="#B3B3B3"/>
</svg>
