<svg width="16" height="16" viewBox="0 0 16 16" fill="none" xmlns="http://www.w3.org/2000/svg">
<g id="&#195;&#141;cones/Sidebar/sair" clip-path="url(#clip0_5199_38804)">
<path id="Vector (Stroke)" fill-rule="evenodd" clip-rule="evenodd" d="M1.59187 0.80098C1.60514 0.800319 1.61842 0.799988 1.6317 0.799988H9.11239C9.12567 0.799988 9.13895 0.800319 9.15221 0.80098C9.59477 0.823039 10.0106 1.01947 10.3087 1.3473C10.6021 1.66997 10.758 2.09408 10.7438 2.52942V5.25713C10.7438 5.69896 10.3856 6.05713 9.94378 6.05713C9.50195 6.05713 9.14378 5.69896 9.14378 5.25713V2.51427C9.14378 2.50225 9.14405 2.49022 9.14459 2.47821C9.1455 2.45817 9.13842 2.43858 9.12493 2.42373C9.11347 2.41114 9.09819 2.40283 9.08158 2.39999H1.66254C1.64607 2.40281 1.63092 2.41106 1.61957 2.42356C1.60618 2.43829 1.59917 2.45774 1.60008 2.47763C1.60064 2.48983 1.60092 2.50205 1.60092 2.51427V13.4857C1.60092 13.4977 1.60065 13.5098 1.60011 13.5218C1.5992 13.5418 1.60626 13.5614 1.61975 13.5763C1.63116 13.5888 1.64639 13.5971 1.66294 13.6H9.08158C9.09818 13.5971 9.11347 13.5888 9.12493 13.5762C9.13842 13.5614 9.1455 13.5418 9.14459 13.5218C9.14405 13.5098 9.14378 13.4977 9.14378 13.4857V10.7428C9.14378 10.301 9.50195 9.94285 9.94378 9.94285C10.3856 9.94285 10.7438 10.301 10.7438 10.7428V13.4706C10.758 13.9059 10.6021 14.33 10.3087 14.6527C10.0106 14.9805 9.59477 15.1769 9.15221 15.199C9.13895 15.1997 9.12567 15.2 9.11239 15.2H1.6317C1.61823 15.2 1.60477 15.1996 1.59132 15.199C1.14897 15.1766 0.733457 14.9801 0.435598 14.6523C0.142438 14.3296 -0.0132895 13.9057 0.000920581 13.4705V2.52966C-0.0135094 2.0944 0.142162 1.67028 0.435412 1.34755C0.733434 1.01958 1.14927 0.823043 1.59187 0.80098ZM7.76658 5.15104C8.079 5.46346 8.079 5.97 7.76658 6.28241L6.84655 7.20244H14.5152C14.957 7.20244 15.3152 7.56062 15.3152 8.00244C15.3152 8.44427 14.957 8.80244 14.5152 8.80244H6.84655L7.76658 9.72247C8.079 10.0349 8.079 10.5414 7.76658 10.8538C7.45416 11.1663 6.94763 11.1663 6.63521 10.8538L4.34949 8.56813C4.03707 8.25571 4.03707 7.74918 4.34949 7.43676L6.63521 5.15104C6.94763 4.83862 7.45416 4.83862 7.76658 5.15104Z" fill="white"/>
</g>
<defs>
<clipPath id="clip0_5199_38804">
<rect width="16" height="16" fill="white"/>
</clipPath>
</defs>
</svg>
