<svg width="17" height="16" viewBox="0 0 17 16" fill="none" xmlns="http://www.w3.org/2000/svg">
<g id="exportar">
<path id="Vector" d="M8.02802 1.48965C8.15303 1.38966 8.32257 1.3335 8.49935 1.3335C8.67612 1.3335 8.84566 1.38966 8.97068 1.48965L11.6373 3.62301C11.7588 3.7236 11.826 3.85832 11.8245 3.99816C11.8229 4.138 11.7528 4.27177 11.6292 4.37065C11.5056 4.46954 11.3384 4.52563 11.1636 4.52684C10.9888 4.52806 10.8204 4.4743 10.6947 4.37715L9.16602 3.1542V8.80013C9.16602 8.94158 9.09578 9.07724 8.97075 9.17726C8.84573 9.27728 8.67616 9.33347 8.49935 9.33347C8.32254 9.33347 8.15297 9.27728 8.02794 9.17726C7.90292 9.07724 7.83268 8.94158 7.83268 8.80013V3.1542L6.30402 4.37715C6.17828 4.4743 6.00988 4.52806 5.83508 4.52684C5.66028 4.52563 5.49308 4.46954 5.36947 4.37065C5.24586 4.27177 5.17575 4.138 5.17423 3.99816C5.17271 3.85832 5.23991 3.7236 5.36135 3.62301L8.02802 1.48965ZM3.83268 9.33347C4.00949 9.33347 4.17906 9.38966 4.30409 9.48968C4.42911 9.5897 4.49935 9.72536 4.49935 9.86681V10.9335H12.4993V9.86681C12.4993 9.72536 12.5696 9.5897 12.6946 9.48968C12.8196 9.38966 12.9892 9.33347 13.166 9.33347C13.3428 9.33347 13.5124 9.38966 13.6374 9.48968C13.7624 9.5897 13.8327 9.72536 13.8327 9.86681V10.9335C13.8327 11.2164 13.6922 11.4877 13.4422 11.6877C13.1921 11.8878 12.853 12.0002 12.4993 12.0002H4.49935C4.14573 12.0002 3.80659 11.8878 3.55654 11.6877C3.30649 11.4877 3.16602 11.2164 3.16602 10.9335V9.86681C3.16602 9.72536 3.23625 9.5897 3.36128 9.48968C3.4863 9.38966 3.65587 9.33347 3.83268 9.33347Z" fill="#444444"/>
</g>
</svg>
